<?xml version="1.0" encoding="UTF-8"?>
<svg x="0px" y="0px" width="220" height="220"  viewBox="0 0 220 220"  xmlns="http://www.w3.org/2000/svg" xmlns:xlink="http://www.w3.org/1999/xlink">
    <defs>
        <g id="cvm">
            <path fill="#0085F6" class="st2" d="M109.2,165c-34.8,0-63-28.2-63-63s28.2-63,63-63c33.1,0,60.2,25.5,62.8,58h3c-2.6-34.1-31-61-65.8-61
                c-36.5,0-66,29.5-66,66s29.5,66,66,66c34.8,0,63.2-26.9,65.8-61h-3C169.4,139.5,142.3,165,109.2,165z M142.2,115V85v-2v-1l-33-20
                l-33,20v1v2v30v3L99,131.8c0.3-0.8,0.8-1.5,1.3-2.2l-21.1-12.8v-30l30,18.2l30-18.2v30L113,132.7c-0.9-1-2.2-1.7-3.8-1.7
                c-2.8,0-5,2.2-5,5s2.2,5,5,5s5-2.2,5-5c0-0.3,0-0.7-0.1-1l28.1-17L142.2,115L142.2,115z M139.2,83.8l-30,18.2l-30-18.2v-0.6
                l30-18.2l30,18.2V83.8z"/>
        </g>

    </defs>
    <g id="test" >
        <use xlink:href="#cvm" x="0" y="0" />
    </g>
</svg>
